<svg version="1.1" xmlns="http://www.w3.org/2000/svg" viewBox="0 0 1240.9538206448403 790.5205836586811" width="2481.9076412896807" height="1581.0411673173621" filter="invert(93%) hue-rotate(180deg)">
  <!-- svg-source:excalidraw -->
  
  <defs>
    <style class="style-fonts">
      @font-face {
        font-family: "Virgil";
        src: url("https://excalidraw.com/Virgil.woff2");
      }
      @font-face {
        font-family: "Cascadia";
        src: url("https://excalidraw.com/Cascadia.woff2");
      }
    </style>
    
  </defs>
  <rect x="0" y="0" width="1240.9538206448403" height="790.5205836586811" fill="#ffffff"></rect><g stroke-linecap="round" transform="translate(231.60584229661757 193.11468625252928) rotate(0 88.7366861465159 49.27690870695642)"><path d="M8.98 27.68 C8.98 27.68, 8.98 27.68, 8.98 27.68 M8.98 27.68 C8.98 27.68, 8.98 27.68, 8.98 27.68 M4.12 39.36 C7.87 35.05, 11.61 30.75, 21.18 19.74 M4.12 39.36 C7.95 34.95, 11.78 30.55, 21.18 19.74 M0.58 49.53 C7.59 41.47, 14.6 33.41, 34.04 11.04 M0.58 49.53 C9.4 39.39, 18.21 29.25, 34.04 11.04 M0.98 55.17 C14.18 39.98, 27.39 24.79, 42.31 7.63 M0.98 55.17 C11.44 43.13, 21.91 31.1, 42.31 7.63 M2.68 59.31 C19.35 40.13, 36.03 20.95, 49.26 5.72 M2.68 59.31 C16.96 42.88, 31.24 26.46, 49.26 5.72 M5.05 62.69 C21.47 43.8, 37.89 24.91, 52.94 7.59 M5.05 62.69 C21.05 44.28, 37.05 25.87, 52.94 7.59 M6.75 66.82 C21.03 50.4, 35.3 33.98, 61.21 4.18 M6.75 66.82 C25 45.83, 43.25 24.84, 61.21 4.18 M9.11 70.2 C28.95 47.38, 48.79 24.56, 68.82 1.52 M9.11 70.2 C32.24 43.59, 55.37 16.98, 68.82 1.52 M11.48 73.58 C34.26 47.37, 57.04 21.17, 75.12 0.37 M11.48 73.58 C33.04 48.78, 54.6 23.98, 75.12 0.37 M14.5 76.2 C39.92 46.95, 65.35 17.7, 79.45 1.49 M14.5 76.2 C40.29 46.53, 66.08 16.86, 79.45 1.49 M17.52 78.83 C37.25 56.12, 56.99 33.42, 85.09 1.09 M17.52 78.83 C32.46 61.63, 47.41 44.43, 85.09 1.09 M20.53 81.45 C47.32 50.63, 74.11 19.81, 90.08 1.45 M20.53 81.45 C42.19 56.54, 63.85 31.63, 90.08 1.45 M24.21 83.32 C39.95 65.21, 55.69 47.1, 95.06 1.81 M24.21 83.32 C45.47 58.86, 66.74 34.4, 95.06 1.81 M27.88 85.19 C45.3 65.15, 62.72 45.11, 100.71 1.42 M27.88 85.19 C52.83 56.5, 77.77 27.8, 100.71 1.42 M31.56 87.06 C54.85 60.27, 78.14 33.48, 105.04 2.53 M31.56 87.06 C46.78 69.54, 62.01 52.03, 105.04 2.53 M35.23 88.93 C53.18 68.28, 71.13 47.64, 110.02 2.89 M35.23 88.93 C55.18 65.98, 75.14 43.03, 110.02 2.89 M38.91 90.8 C58.38 68.39, 77.86 45.99, 115.01 3.25 M38.91 90.8 C68.46 56.8, 98.02 22.8, 115.01 3.25 M43.24 91.91 C68.74 62.58, 94.24 33.25, 119.34 4.37 M43.24 91.91 C67.93 63.51, 92.63 35.1, 119.34 4.37 M46.91 93.78 C72.21 64.68, 97.51 35.58, 123.67 5.48 M46.91 93.78 C62.53 75.82, 78.15 57.86, 123.67 5.48 M51.25 94.9 C69.28 74.15, 87.31 53.41, 128.66 5.84 M51.25 94.9 C76.03 66.39, 100.81 37.89, 128.66 5.84 M55.58 96.01 C81.85 65.79, 108.12 35.57, 132.99 6.96 M55.58 96.01 C73.1 75.85, 90.63 55.69, 132.99 6.96 M60.56 96.37 C83.63 69.84, 106.69 43.31, 136.67 8.83 M60.56 96.37 C85.07 68.18, 109.59 39.98, 136.67 8.83 M64.89 97.49 C87.55 71.42, 110.21 45.36, 141 9.94 M64.89 97.49 C91.17 67.26, 117.44 37.04, 141 9.94 M69.88 97.85 C90.51 74.12, 111.13 50.4, 144.67 11.81 M69.88 97.85 C97.03 66.62, 124.18 35.38, 144.67 11.81 M74.87 98.21 C98.96 70.49, 123.05 42.78, 148.35 13.68 M74.87 98.21 C94.12 76.06, 113.38 53.9, 148.35 13.68 M79.86 98.57 C104.56 70.15, 129.26 41.74, 152.02 15.55 M79.86 98.57 C104.35 70.39, 128.85 42.21, 152.02 15.55 M84.84 98.93 C110.64 69.25, 136.44 39.57, 155.7 17.42 M84.84 98.93 C112.69 66.9, 140.53 34.86, 155.7 17.42 M89.83 99.29 C107.56 78.9, 125.28 58.51, 159.37 19.29 M89.83 99.29 C111.53 74.32, 133.24 49.35, 159.37 19.29 M95.47 98.89 C112.31 79.52, 129.16 60.14, 162.39 21.91 M95.47 98.89 C120.11 70.55, 144.75 42.2, 162.39 21.91 M100.46 99.25 C115.18 82.31, 129.91 65.37, 165.41 24.54 M100.46 99.25 C113.82 83.89, 127.17 68.52, 165.41 24.54 M106.1 98.86 C121.47 81.18, 136.85 63.49, 168.43 27.16 M106.1 98.86 C126.8 75.05, 147.49 51.25, 168.43 27.16 M111.09 99.22 C125.08 83.12, 139.08 67.02, 171.45 29.79 M111.09 99.22 C129.74 77.77, 148.39 56.32, 171.45 29.79 M118.7 96.56 C135.91 76.76, 153.12 56.96, 173.15 33.92 M118.7 96.56 C131.92 81.36, 145.13 66.15, 173.15 33.92 M125.66 94.66 C140.88 77.14, 156.11 59.62, 175.52 37.3 M125.66 94.66 C144.35 73.16, 163.03 51.66, 175.52 37.3 M129.99 95.77 C141.38 82.66, 152.78 69.55, 177.88 40.68 M129.99 95.77 C147.84 75.24, 165.69 54.7, 177.88 40.68 M138.25 92.36 C148.15 80.98, 158.04 69.6, 178.93 45.57 M138.25 92.36 C151.28 77.37, 164.3 62.39, 178.93 45.57 M145.87 89.7 C155.95 78.1, 166.03 66.51, 179.32 51.21 M145.87 89.7 C152.84 81.68, 159.81 73.66, 179.32 51.21 M158.73 81 C164.08 74.84, 169.44 68.68, 176.44 60.63 M158.73 81 C164.5 74.36, 170.28 67.71, 176.44 60.63" stroke="#ffec99" stroke-width="0.5" fill="none"></path><path d="M177.47 49.28 C177.47 51.12, 177.29 52.97, 176.92 54.79 C176.54 56.62, 175.99 58.45, 175.25 60.24 C174.51 62.04, 173.59 63.82, 172.49 65.55 C171.4 67.29, 170.12 69, 168.69 70.66 C167.25 72.31, 165.63 73.94, 163.87 75.49 C162.11 77.05, 160.18 78.56, 158.11 80 C156.05 81.44, 153.82 82.82, 151.48 84.12 C149.14 85.42, 146.65 86.66, 144.06 87.8 C141.47 88.95, 138.75 90.02, 135.95 91 C133.14 91.98, 130.22 92.88, 127.24 93.67 C124.25 94.47, 121.17 95.18, 118.04 95.79 C114.92 96.4, 111.71 96.91, 108.48 97.32 C105.25 97.73, 101.96 98.04, 98.67 98.24 C95.38 98.45, 92.05 98.55, 88.74 98.55 C85.42 98.55, 82.09 98.45, 78.8 98.24 C75.51 98.04, 72.22 97.73, 68.99 97.32 C65.76 96.91, 62.55 96.4, 59.43 95.79 C56.3 95.18, 53.22 94.47, 50.24 93.67 C47.25 92.88, 44.33 91.98, 41.53 91 C38.72 90.02, 36 88.95, 33.41 87.8 C30.82 86.66, 28.33 85.42, 25.99 84.12 C23.65 82.82, 21.42 81.44, 19.36 80 C17.29 78.56, 15.36 77.05, 13.6 75.49 C11.84 73.94, 10.22 72.31, 8.79 70.66 C7.35 69, 6.07 67.29, 4.98 65.55 C3.89 63.82, 2.96 62.04, 2.22 60.24 C1.49 58.45, 0.93 56.62, 0.56 54.79 C0.19 52.97, 0 51.12, 0 49.28 C0 47.44, 0.19 45.59, 0.56 43.76 C0.93 41.93, 1.49 40.1, 2.22 38.31 C2.96 36.52, 3.89 34.74, 4.98 33 C6.07 31.27, 7.35 29.55, 8.79 27.9 C10.22 26.24, 11.84 24.62, 13.6 23.06 C15.36 21.5, 17.29 19.99, 19.36 18.55 C21.42 17.12, 23.65 15.73, 25.99 14.43 C28.33 13.13, 30.82 11.9, 33.41 10.75 C36 9.6, 38.72 8.53, 41.53 7.55 C44.33 6.57, 47.25 5.68, 50.24 4.88 C53.22 4.08, 56.3 3.37, 59.43 2.77 C62.55 2.16, 65.76 1.64, 68.99 1.24 C72.22 0.83, 75.51 0.52, 78.8 0.31 C82.09 0.1, 85.42 0, 88.74 0 C92.05 0, 95.38 0.1, 98.67 0.31 C101.96 0.52, 105.25 0.83, 108.48 1.24 C111.71 1.64, 114.92 2.16, 118.04 2.77 C121.17 3.37, 124.25 4.08, 127.24 4.88 C130.22 5.68, 133.14 6.57, 135.95 7.55 C138.75 8.53, 141.47 9.6, 144.06 10.75 C146.65 11.9, 149.14 13.13, 151.48 14.43 C153.82 15.73, 156.05 17.12, 158.11 18.55 C160.18 19.99, 162.11 21.5, 163.87 23.06 C165.63 24.62, 167.25 26.24, 168.69 27.9 C170.12 29.55, 171.4 31.27, 172.49 33 C173.59 34.74, 174.51 36.52, 175.25 38.31 C175.99 40.1, 176.54 41.93, 176.92 43.76 C177.29 45.59, 177.38 48.36, 177.47 49.28 C177.57 50.2, 177.57 48.36, 177.47 49.28" stroke="#1e1e1e" stroke-width="1" fill="none"></path></g><g stroke-linecap="round" transform="translate(422.75523021406735 190.5666162157995) rotate(0 88.7366861465159 49.27690870695642)"><path d="M8.98 27.68 C8.98 27.68, 8.98 27.68, 8.98 27.68 M8.98 27.68 C8.98 27.68, 8.98 27.68, 8.98 27.68 M4.12 39.36 C9.4 33.29, 14.67 27.23, 21.18 19.74 M4.12 39.36 C8.4 34.44, 12.67 29.52, 21.18 19.74 M0.58 49.53 C13.11 35.12, 25.63 20.71, 34.04 11.04 M0.58 49.53 C8.4 40.53, 16.23 31.53, 34.04 11.04 M0.98 55.17 C12.8 41.57, 24.63 27.97, 42.31 7.63 M0.98 55.17 C15.78 38.14, 30.59 21.11, 42.31 7.63 M2.68 59.31 C13.49 46.88, 24.29 34.45, 49.26 5.72 M2.68 59.31 C12.37 48.16, 22.06 37.02, 49.26 5.72 M5.05 62.69 C17.8 48.02, 30.55 33.35, 52.94 7.59 M5.05 62.69 C22.67 42.41, 40.29 22.14, 52.94 7.59 M6.75 66.82 C17.65 54.28, 28.56 41.74, 61.21 4.18 M6.75 66.82 C22.16 49.1, 37.56 31.37, 61.21 4.18 M9.11 70.2 C32.58 43.21, 56.04 16.22, 68.82 1.52 M9.11 70.2 C22.08 55.28, 35.05 40.36, 68.82 1.52 M11.48 73.58 C26.88 55.86, 42.29 38.13, 75.12 0.37 M11.48 73.58 C31.46 50.6, 51.44 27.61, 75.12 0.37 M14.5 76.2 C38.78 48.26, 63.07 20.32, 79.45 1.49 M14.5 76.2 C37.51 49.73, 60.53 23.25, 79.45 1.49 M17.52 78.83 C40.13 52.81, 62.74 26.8, 85.09 1.09 M17.52 78.83 C32.2 61.93, 46.89 45.04, 85.09 1.09 M20.53 81.45 C47 51, 73.47 20.55, 90.08 1.45 M20.53 81.45 C37.13 62.36, 53.72 43.27, 90.08 1.45 M24.21 83.32 C50.36 53.24, 76.51 23.16, 95.06 1.81 M24.21 83.32 C43.36 61.29, 62.51 39.26, 95.06 1.81 M27.88 85.19 C53.28 55.97, 78.68 26.76, 100.71 1.42 M27.88 85.19 C45.37 65.07, 62.86 44.96, 100.71 1.42 M31.56 87.06 C49.97 65.88, 68.37 44.71, 105.04 2.53 M31.56 87.06 C47.06 69.22, 62.57 51.39, 105.04 2.53 M35.23 88.93 C56.03 65.01, 76.82 41.09, 110.02 2.89 M35.23 88.93 C60.67 59.67, 86.11 30.41, 110.02 2.89 M38.91 90.8 C69.22 55.93, 99.53 21.06, 115.01 3.25 M38.91 90.8 C64.67 61.16, 90.44 31.52, 115.01 3.25 M43.24 91.91 C68.53 62.82, 93.81 33.74, 119.34 4.37 M43.24 91.91 C60.79 71.73, 78.33 51.54, 119.34 4.37 M46.91 93.78 C65.77 72.09, 84.63 50.4, 123.67 5.48 M46.91 93.78 C63.26 74.98, 79.61 56.17, 123.67 5.48 M51.25 94.9 C77.51 64.68, 103.78 34.46, 128.66 5.84 M51.25 94.9 C67.85 75.8, 84.46 56.69, 128.66 5.84 M55.58 96.01 C81.9 65.73, 108.23 35.44, 132.99 6.96 M55.58 96.01 C83.08 64.38, 110.58 32.74, 132.99 6.96 M60.56 96.37 C82.72 70.89, 104.87 45.4, 136.67 8.83 M60.56 96.37 C83.84 69.59, 107.12 42.82, 136.67 8.83 M64.89 97.49 C83.38 76.22, 101.87 54.95, 141 9.94 M64.89 97.49 C91.32 67.09, 117.75 36.69, 141 9.94 M69.88 97.85 C88.1 76.89, 106.32 55.93, 144.67 11.81 M69.88 97.85 C94.53 69.49, 119.18 41.14, 144.67 11.81 M74.87 98.21 C91.75 78.79, 108.63 59.37, 148.35 13.68 M74.87 98.21 C99.25 70.16, 123.64 42.1, 148.35 13.68 M79.86 98.57 C95.51 80.56, 111.16 62.56, 152.02 15.55 M79.86 98.57 C95.83 80.19, 111.81 61.81, 152.02 15.55 M84.84 98.93 C112.49 67.13, 140.13 35.33, 155.7 17.42 M84.84 98.93 C107.01 73.42, 129.18 47.92, 155.7 17.42 M89.83 99.29 C110.34 75.69, 130.86 52.09, 159.37 19.29 M89.83 99.29 C112.65 73.04, 135.46 46.79, 159.37 19.29 M95.47 98.89 C117.4 73.66, 139.34 48.43, 162.39 21.91 M95.47 98.89 C112.54 79.26, 129.6 59.63, 162.39 21.91 M100.46 99.25 C121.64 74.88, 142.83 50.51, 165.41 24.54 M100.46 99.25 C120.42 76.29, 140.38 53.32, 165.41 24.54 M106.1 98.86 C122.32 80.2, 138.54 61.54, 168.43 27.16 M106.1 98.86 C130.03 71.33, 153.96 43.81, 168.43 27.16 M111.09 99.22 C124.52 83.76, 137.96 68.31, 171.45 29.79 M111.09 99.22 C124.84 83.4, 138.59 67.58, 171.45 29.79 M118.7 96.56 C136.09 76.56, 153.48 56.55, 173.15 33.92 M118.7 96.56 C134.28 78.64, 149.86 60.71, 173.15 33.92 M125.66 94.66 C138.65 79.71, 151.64 64.76, 175.52 37.3 M125.66 94.66 C139.07 79.22, 152.49 63.79, 175.52 37.3 M129.99 95.77 C142.01 81.94, 154.03 68.12, 177.88 40.68 M129.99 95.77 C140.01 84.24, 150.03 72.71, 177.88 40.68 M138.25 92.36 C153.73 74.55, 169.21 56.75, 178.93 45.57 M138.25 92.36 C147.27 81.99, 156.28 71.62, 178.93 45.57 M145.87 89.7 C156.4 77.58, 166.94 65.45, 179.32 51.21 M145.87 89.7 C157.97 75.77, 170.08 61.85, 179.32 51.21 M158.73 81 C163.8 75.16, 168.88 69.32, 176.44 60.63 M158.73 81 C165.58 73.12, 172.43 65.24, 176.44 60.63" stroke="#ffec99" stroke-width="0.5" fill="none"></path><path d="M177.47 49.28 C177.47 51.12, 177.29 52.97, 176.92 54.79 C176.54 56.62, 175.99 58.45, 175.25 60.24 C174.51 62.04, 173.59 63.82, 172.49 65.55 C171.4 67.29, 170.12 69, 168.69 70.66 C167.25 72.31, 165.63 73.94, 163.87 75.49 C162.11 77.05, 160.18 78.56, 158.11 80 C156.05 81.44, 153.82 82.82, 151.48 84.12 C149.14 85.42, 146.65 86.66, 144.06 87.8 C141.47 88.95, 138.75 90.02, 135.95 91 C133.14 91.98, 130.22 92.88, 127.24 93.67 C124.25 94.47, 121.17 95.18, 118.04 95.79 C114.92 96.4, 111.71 96.91, 108.48 97.32 C105.25 97.73, 101.96 98.04, 98.67 98.24 C95.38 98.45, 92.05 98.55, 88.74 98.55 C85.42 98.55, 82.09 98.45, 78.8 98.24 C75.51 98.04, 72.22 97.73, 68.99 97.32 C65.76 96.91, 62.55 96.4, 59.43 95.79 C56.3 95.18, 53.22 94.47, 50.24 93.67 C47.25 92.88, 44.33 91.98, 41.53 91 C38.72 90.02, 36 88.95, 33.41 87.8 C30.82 86.66, 28.33 85.42, 25.99 84.12 C23.65 82.82, 21.42 81.44, 19.36 80 C17.29 78.56, 15.36 77.05, 13.6 75.49 C11.84 73.94, 10.22 72.31, 8.79 70.66 C7.35 69, 6.07 67.29, 4.98 65.55 C3.89 63.82, 2.96 62.04, 2.22 60.24 C1.49 58.45, 0.93 56.62, 0.56 54.79 C0.19 52.97, 0 51.12, 0 49.28 C0 47.44, 0.19 45.59, 0.56 43.76 C0.93 41.93, 1.49 40.1, 2.22 38.31 C2.96 36.52, 3.89 34.74, 4.98 33 C6.07 31.27, 7.35 29.55, 8.79 27.9 C10.22 26.24, 11.84 24.62, 13.6 23.06 C15.36 21.5, 17.29 19.99, 19.36 18.55 C21.42 17.12, 23.65 15.73, 25.99 14.43 C28.33 13.13, 30.82 11.9, 33.41 10.75 C36 9.6, 38.72 8.53, 41.53 7.55 C44.33 6.57, 47.25 5.68, 50.24 4.88 C53.22 4.08, 56.3 3.37, 59.43 2.77 C62.55 2.16, 65.76 1.64, 68.99 1.24 C72.22 0.83, 75.51 0.52, 78.8 0.31 C82.09 0.1, 85.42 0, 88.74 0 C92.05 0, 95.38 0.1, 98.67 0.31 C101.96 0.52, 105.25 0.83, 108.48 1.24 C111.71 1.64, 114.92 2.16, 118.04 2.77 C121.17 3.37, 124.25 4.08, 127.24 4.88 C130.22 5.68, 133.14 6.57, 135.95 7.55 C138.75 8.53, 141.47 9.6, 144.06 10.75 C146.65 11.9, 149.14 13.13, 151.48 14.43 C153.82 15.73, 156.05 17.12, 158.11 18.55 C160.18 19.99, 162.11 21.5, 163.87 23.06 C165.63 24.62, 167.25 26.24, 168.69 27.9 C170.12 29.55, 171.4 31.27, 172.49 33 C173.59 34.74, 174.51 36.52, 175.25 38.31 C175.99 40.1, 176.54 41.93, 176.92 43.76 C177.29 45.59, 177.38 48.36, 177.47 49.28 C177.57 50.2, 177.57 48.36, 177.47 49.28" stroke="#1e1e1e" stroke-width="1" fill="none"></path></g><g stroke-linecap="round" transform="translate(714.7593486732918 85.52198759976636) rotate(0 104.26049389918981 42.194686330025434)"><path d="M4.96 5.64 C4.96 5.64, 4.96 5.64, 4.96 5.64 M4.96 5.64 C4.96 5.64, 4.96 5.64, 4.96 5.64 M0.76 16.56 C3.57 13.33, 6.38 10.1, 13.23 2.22 M0.76 16.56 C5.04 11.64, 9.32 6.72, 13.23 2.22 M0.5 22.96 C6.76 15.76, 13.01 8.57, 18.87 1.83 M0.5 22.96 C5.36 17.37, 10.22 11.78, 18.87 1.83 M0.89 28.6 C8.08 20.34, 15.26 12.08, 23.86 2.19 M0.89 28.6 C9.62 18.57, 18.34 8.54, 23.86 2.19 M0.63 35 C8.64 25.79, 16.64 16.59, 28.84 2.55 M0.63 35 C6.99 27.69, 13.34 20.39, 28.84 2.55 M1.03 40.64 C13.26 26.57, 25.5 12.5, 34.49 2.15 M1.03 40.64 C11.11 29.05, 21.19 17.45, 34.49 2.15 M0.77 47.04 C16.08 29.42, 31.4 11.8, 39.47 2.51 M0.77 47.04 C11.23 35.01, 21.69 22.98, 39.47 2.51 M0.51 53.44 C17.82 33.52, 35.13 13.61, 45.12 2.12 M0.51 53.44 C11.79 40.46, 23.07 27.48, 45.12 2.12 M0.9 59.08 C15.06 42.79, 29.22 26.5, 50.1 2.48 M0.9 59.08 C11.99 46.33, 23.08 33.57, 50.1 2.48 M0.64 65.48 C12.96 51.31, 25.27 37.14, 55.75 2.08 M0.64 65.48 C18.05 45.45, 35.47 25.41, 55.75 2.08 M2.35 69.61 C17.56 52.11, 32.77 34.61, 60.73 2.45 M2.35 69.61 C14.16 56.03, 25.97 42.44, 60.73 2.45 M3.4 74.5 C19.42 56.07, 35.44 37.65, 66.38 2.05 M3.4 74.5 C16.48 59.45, 29.56 44.4, 66.38 2.05 M5.76 77.88 C19.1 62.53, 32.44 47.19, 71.36 2.41 M5.76 77.88 C25.35 55.34, 44.95 32.8, 71.36 2.41 M8.12 81.26 C28.94 57.32, 49.75 33.37, 77.01 2.02 M8.12 81.26 C34.38 51.05, 60.64 20.84, 77.01 2.02 M11.14 83.88 C32.02 59.86, 52.91 35.84, 81.99 2.38 M11.14 83.88 C32.26 59.59, 53.38 35.29, 81.99 2.38 M14.82 85.75 C38.66 58.32, 62.51 30.89, 87.64 1.98 M14.82 85.75 C38.52 58.49, 62.22 31.22, 87.64 1.98 M21.11 84.6 C42.73 59.73, 64.35 34.86, 92.62 2.34 M21.11 84.6 C47.57 54.17, 74.03 23.73, 92.62 2.34 M26.76 84.21 C50.35 57.07, 73.95 29.93, 98.27 1.95 M26.76 84.21 C45.74 62.37, 64.72 40.54, 98.27 1.95 M31.74 84.57 C51.97 61.31, 72.19 38.04, 103.25 2.31 M31.74 84.57 C58.19 54.15, 84.64 23.72, 103.25 2.31 M37.39 84.18 C54.98 63.94, 72.57 43.71, 108.24 2.67 M37.39 84.18 C55.96 62.81, 74.53 41.45, 108.24 2.67 M42.37 84.54 C62.53 61.35, 82.68 38.17, 113.88 2.27 M42.37 84.54 C66.62 56.65, 90.86 28.76, 113.88 2.27 M48.02 84.14 C66.45 62.93, 84.89 41.73, 118.87 2.63 M48.02 84.14 C70.14 58.69, 92.26 33.24, 118.87 2.63 M53 84.5 C69.76 65.23, 86.51 45.96, 124.51 2.24 M53 84.5 C67.65 67.65, 82.31 50.79, 124.51 2.24 M57.99 84.86 C78.2 61.62, 98.4 38.38, 129.5 2.6 M57.99 84.86 C75.77 64.41, 93.55 43.95, 129.5 2.6 M63.63 84.47 C82.51 62.75, 101.39 41.04, 135.14 2.2 M63.63 84.47 C83.7 61.38, 103.77 38.29, 135.14 2.2 M68.62 84.83 C88.02 62.52, 107.41 40.21, 140.13 2.56 M68.62 84.83 C85.79 65.07, 102.96 45.32, 140.13 2.56 M74.26 84.43 C101.71 52.86, 129.15 21.29, 145.78 2.17 M74.26 84.43 C100.4 54.36, 126.54 24.3, 145.78 2.17 M79.25 84.79 C102.22 58.38, 125.18 31.96, 150.76 2.53 M79.25 84.79 C100.08 60.83, 120.91 36.87, 150.76 2.53 M84.89 84.4 C113.19 51.84, 141.49 19.29, 156.41 2.13 M84.89 84.4 C102.39 64.27, 119.88 44.15, 156.41 2.13 M89.88 84.76 C116.08 54.62, 142.27 24.49, 161.39 2.49 M89.88 84.76 C114.39 56.57, 138.89 28.38, 161.39 2.49 M95.52 84.36 C123.48 52.21, 151.43 20.06, 167.04 2.1 M95.52 84.36 C123.35 52.36, 151.17 20.35, 167.04 2.1 M100.51 84.72 C120.52 61.7, 140.54 38.68, 172.02 2.46 M100.51 84.72 C127.04 54.21, 153.56 23.7, 172.02 2.46 M106.15 84.33 C123.98 63.82, 141.81 43.32, 177.67 2.07 M106.15 84.33 C124.45 63.29, 142.74 42.24, 177.67 2.07 M111.14 84.69 C137.88 53.94, 164.61 23.18, 182.65 2.43 M111.14 84.69 C131.77 60.96, 152.4 37.23, 182.65 2.43 M116.78 84.29 C141.33 56.06, 165.87 27.82, 188.95 1.28 M116.78 84.29 C144.77 52.1, 172.76 19.9, 188.95 1.28 M121.77 84.65 C143.39 59.79, 165 34.92, 193.94 1.64 M121.77 84.65 C139.36 64.42, 156.95 44.19, 193.94 1.64 M127.42 84.26 C143.12 66.2, 158.82 48.13, 198.27 2.75 M127.42 84.26 C149.66 58.67, 171.91 33.08, 198.27 2.75 M132.4 84.62 C156.54 56.85, 180.68 29.08, 201.94 4.62 M132.4 84.62 C154.73 58.94, 177.05 33.26, 201.94 4.62 M138.05 84.23 C160.87 57.97, 183.69 31.71, 204.96 7.25 M138.05 84.23 C154.71 65.05, 171.38 45.88, 204.96 7.25 M143.03 84.59 C165.5 58.74, 187.97 32.89, 207.98 9.87 M143.03 84.59 C158.67 66.6, 174.3 48.62, 207.98 9.87 M148.68 84.19 C168.88 60.94, 189.09 37.69, 209.03 14.76 M148.68 84.19 C172.45 56.84, 196.23 29.49, 209.03 14.76 M153.66 84.55 C174.46 60.62, 195.26 36.69, 210.74 18.89 M153.66 84.55 C168.44 67.55, 183.22 50.55, 210.74 18.89 M159.31 84.16 C176.32 64.58, 193.34 45.01, 211.13 24.53 M159.31 84.16 C171.49 70.14, 183.68 56.12, 211.13 24.53 M164.29 84.52 C174.07 73.26, 183.85 62.01, 210.87 30.93 M164.29 84.52 C176.77 70.16, 189.25 55.81, 210.87 30.93 M169.94 84.12 C179.69 72.9, 189.44 61.68, 211.27 36.58 M169.94 84.12 C180.08 72.45, 190.22 60.78, 211.27 36.58 M174.92 84.48 C186.8 70.82, 198.67 57.16, 211.01 42.97 M174.92 84.48 C185.59 72.21, 196.26 59.93, 211.01 42.97 M179.91 84.84 C188.14 75.37, 196.38 65.9, 211.4 48.62 M179.91 84.84 C191.98 70.96, 204.05 57.07, 211.4 48.62 M185.55 84.45 C193.42 75.4, 201.28 66.35, 211.14 55.01 M185.55 84.45 C190.83 78.37, 196.11 72.3, 211.14 55.01 M189.23 86.32 C197.05 77.32, 204.86 68.33, 208.91 63.68 M189.23 86.32 C196.97 77.41, 204.71 68.5, 208.91 63.68 M196.84 83.66 C200.96 78.92, 205.08 74.18, 207.99 70.83 M196.84 83.66 C201.3 78.53, 205.76 73.4, 207.99 70.83" stroke="#a5d8ff" stroke-width="0.5" fill="none"></path><path d="M21.1 0 M21.1 0 C75.15 0, 129.21 0, 187.42 0 M21.1 0 C71.99 0, 122.88 0, 187.42 0 M187.42 0 C201.49 0, 208.52 7.03, 208.52 21.1 M187.42 0 C201.49 0, 208.52 7.03, 208.52 21.1 M208.52 21.1 C208.52 29.99, 208.52 38.88, 208.52 63.29 M208.52 21.1 C208.52 36.7, 208.52 52.31, 208.52 63.29 M208.52 63.29 C208.52 77.36, 201.49 84.39, 187.42 84.39 M208.52 63.29 C208.52 77.36, 201.49 84.39, 187.42 84.39 M187.42 84.39 C128.04 84.39, 68.65 84.39, 21.1 84.39 M187.42 84.39 C138.86 84.39, 90.3 84.39, 21.1 84.39 M21.1 84.39 C7.03 84.39, 0 77.36, 0 63.29 M21.1 84.39 C7.03 84.39, 0 77.36, 0 63.29 M0 63.29 C0 49.77, 0 36.26, 0 21.1 M0 63.29 C0 49.15, 0 35.01, 0 21.1 M0 21.1 C0 7.03, 7.03 0, 21.1 0 M0 21.1 C0 7.03, 7.03 0, 21.1 0" stroke="#1e1e1e" stroke-width="1" fill="none"></path></g><g stroke-linecap="round" transform="translate(737.7537429425695 10) rotate(0 79.30944076798482 22.99673094758964)"><path d="M3.06 2.66 C3.06 2.66, 3.06 2.66, 3.06 2.66 M3.06 2.66 C3.06 2.66, 3.06 2.66, 3.06 2.66 M1.49 10.57 C3.57 8.18, 5.64 5.79, 8.7 2.27 M1.49 10.57 C3.9 7.79, 6.31 5.02, 8.7 2.27 M1.88 16.21 C4.58 13.11, 7.27 10.01, 14.35 1.87 M1.88 16.21 C5.13 12.47, 8.39 8.73, 14.35 1.87 M1.62 22.61 C8.04 15.22, 14.47 7.83, 19.33 2.23 M1.62 22.61 C5.36 18.31, 9.1 14, 19.33 2.23 M2.01 28.25 C10.44 18.56, 18.86 8.87, 24.32 2.59 M2.01 28.25 C10.01 19.05, 18.01 9.85, 24.32 2.59 M1.75 34.65 C10.94 24.08, 20.12 13.52, 29.96 2.2 M1.75 34.65 C11.65 23.27, 21.54 11.89, 29.96 2.2 M2.8 39.54 C11.9 29.07, 21 18.61, 34.95 2.56 M2.8 39.54 C14.48 26.11, 26.15 12.68, 34.95 2.56 M3.85 44.43 C12.47 34.51, 21.09 24.6, 40.59 2.16 M3.85 44.43 C13.09 33.8, 22.33 23.17, 40.59 2.16 M7.53 46.3 C17.83 34.45, 28.12 22.61, 45.58 2.52 M7.53 46.3 C15.35 37.3, 23.17 28.31, 45.58 2.52 M12.52 46.66 C23.49 34.04, 34.46 21.42, 51.22 2.13 M12.52 46.66 C24.18 33.24, 35.85 19.81, 51.22 2.13 M17.5 47.02 C31.61 30.78, 45.73 14.55, 56.21 2.49 M17.5 47.02 C31.27 31.18, 45.03 15.35, 56.21 2.49 M23.15 46.62 C34.82 33.19, 46.5 19.76, 61.85 2.09 M23.15 46.62 C33.88 34.27, 44.62 21.92, 61.85 2.09 M28.13 46.98 C42.65 30.28, 57.17 13.58, 66.84 2.45 M28.13 46.98 C40.61 32.62, 53.1 18.27, 66.84 2.45 M33.78 46.59 C43.64 35.24, 53.51 23.88, 72.48 2.06 M33.78 46.59 C43.28 35.65, 52.79 24.72, 72.48 2.06 M38.76 46.95 C54.17 29.22, 69.58 11.5, 77.47 2.42 M38.76 46.95 C52.47 31.18, 66.18 15.41, 77.47 2.42 M44.41 46.55 C57.75 31.2, 71.1 15.85, 83.11 2.02 M44.41 46.55 C54.51 34.93, 64.61 23.31, 83.11 2.02 M49.39 46.91 C61.61 32.85, 73.83 18.8, 88.1 2.38 M49.39 46.91 C62.47 31.87, 75.54 16.83, 88.1 2.38 M55.04 46.52 C66.99 32.77, 78.94 19.02, 93.74 1.99 M55.04 46.52 C65.4 34.59, 75.77 22.66, 93.74 1.99 M60.02 46.88 C71.48 33.7, 82.93 20.53, 98.73 2.35 M60.02 46.88 C71.62 33.54, 83.22 20.2, 98.73 2.35 M65.67 46.48 C78.06 32.23, 90.45 17.97, 104.37 1.96 M65.67 46.48 C81.12 28.7, 96.58 10.92, 104.37 1.96 M70.65 46.84 C81.97 33.82, 93.29 20.8, 109.36 2.32 M70.65 46.84 C82.45 33.27, 94.25 19.7, 109.36 2.32 M76.3 46.45 C87.46 33.61, 98.62 20.77, 115 1.92 M76.3 46.45 C87.05 34.08, 97.8 21.71, 115 1.92 M81.28 46.81 C94.65 31.44, 108.01 16.06, 119.99 2.28 M81.28 46.81 C95.13 30.88, 108.98 14.95, 119.99 2.28 M86.93 46.41 C100.81 30.44, 114.7 14.47, 125.63 1.89 M86.93 46.41 C99.1 32.41, 111.28 18.41, 125.63 1.89 M91.91 46.77 C102.75 34.31, 113.59 21.84, 130.62 2.25 M91.91 46.77 C103.6 33.34, 115.28 19.9, 130.62 2.25 M96.9 47.13 C105.26 37.52, 113.62 27.9, 136.26 1.85 M96.9 47.13 C105.17 37.63, 113.43 28.12, 136.26 1.85 M102.54 46.74 C110.61 37.46, 118.68 28.18, 141.25 2.21 M102.54 46.74 C114.91 32.52, 127.27 18.3, 141.25 2.21 M107.53 47.1 C122.44 29.95, 137.36 12.79, 148.21 0.31 M107.53 47.1 C117.85 35.24, 128.16 23.37, 148.21 0.31 M113.17 46.71 C122.16 36.37, 131.14 26.04, 152.54 1.42 M113.17 46.71 C122.31 36.2, 131.45 25.69, 152.54 1.42 M118.16 47.07 C128.6 35.05, 139.05 23.04, 156.21 3.29 M118.16 47.07 C126.68 37.26, 135.2 27.46, 156.21 3.29 M123.8 46.67 C134.82 34, 145.83 21.33, 157.92 7.43 M123.8 46.67 C130.64 38.81, 137.48 30.94, 157.92 7.43 M128.79 47.03 C135.87 38.89, 142.95 30.74, 160.28 10.81 M128.79 47.03 C137.88 36.58, 146.97 26.12, 160.28 10.81 M134.43 46.64 C141.31 38.73, 148.18 30.82, 160.68 16.45 M134.43 46.64 C140.31 39.87, 146.19 33.11, 160.68 16.45 M139.42 47 C144.52 41.13, 149.62 35.26, 160.42 22.85 M139.42 47 C145.81 39.65, 152.2 32.3, 160.42 22.85 M145.06 46.6 C149.8 41.15, 154.54 35.71, 160.81 28.49 M145.06 46.6 C148.87 42.23, 152.67 37.85, 160.81 28.49 M149.4 47.72 C153.48 43.01, 157.57 38.31, 159.89 35.64 M149.4 47.72 C152.72 43.89, 156.04 40.07, 159.89 35.64" stroke="#fcc2d7" stroke-width="0.5" fill="none"></path><path d="M11.5 0 M11.5 0 C49.59 0, 87.68 0, 147.12 0 M11.5 0 C42.82 0, 74.14 0, 147.12 0 M147.12 0 C154.79 0, 158.62 3.83, 158.62 11.5 M147.12 0 C154.79 0, 158.62 3.83, 158.62 11.5 M158.62 11.5 C158.62 19.2, 158.62 26.89, 158.62 34.5 M158.62 11.5 C158.62 18.42, 158.62 25.33, 158.62 34.5 M158.62 34.5 C158.62 42.16, 154.79 45.99, 147.12 45.99 M158.62 34.5 C158.62 42.16, 154.79 45.99, 147.12 45.99 M147.12 45.99 C101.76 45.99, 56.4 45.99, 11.5 45.99 M147.12 45.99 C102.36 45.99, 57.6 45.99, 11.5 45.99 M11.5 45.99 C3.83 45.99, 0 42.16, 0 34.5 M11.5 45.99 C3.83 45.99, 0 42.16, 0 34.5 M0 34.5 C0 27.1, 0 19.71, 0 11.5 M0 34.5 C0 26.39, 0 18.29, 0 11.5 M0 11.5 C0 3.83, 3.83 0, 11.5 0 M0 11.5 C0 3.83, 3.83 0, 11.5 0" stroke="#1e1e1e" stroke-width="1" fill="none"></path></g><g stroke-linecap="round" transform="translate(330.4413565481852 14.231855516633004) rotate(0 79.30944076798485 22.99673094758964)"><path d="M3.06 2.66 C3.06 2.66, 3.06 2.66, 3.06 2.66 M3.06 2.66 C3.06 2.66, 3.06 2.66, 3.06 2.66 M1.49 10.57 C3.45 8.31, 5.41 6.05, 8.7 2.27 M1.49 10.57 C3.26 8.53, 5.04 6.48, 8.7 2.27 M1.88 16.21 C6.18 11.26, 10.48 6.32, 14.35 1.87 M1.88 16.21 C5.42 12.14, 8.96 8.07, 14.35 1.87 M1.62 22.61 C6.04 17.52, 10.46 12.44, 19.33 2.23 M1.62 22.61 C5.69 17.93, 9.76 13.25, 19.33 2.23 M2.01 28.25 C9.11 20.09, 16.2 11.93, 24.32 2.59 M2.01 28.25 C6.89 22.64, 11.77 17.03, 24.32 2.59 M1.75 34.65 C8.05 27.41, 14.34 20.17, 29.96 2.2 M1.75 34.65 C9.71 25.5, 17.66 16.35, 29.96 2.2 M2.8 39.54 C13.43 27.32, 24.05 15.09, 34.95 2.56 M2.8 39.54 C13.86 26.82, 24.92 14.1, 34.95 2.56 M3.85 44.43 C16.78 29.56, 29.71 14.69, 40.59 2.16 M3.85 44.43 C15.56 30.96, 27.26 17.5, 40.59 2.16 M7.53 46.3 C18.88 33.23, 30.24 20.17, 45.58 2.52 M7.53 46.3 C19.18 32.89, 30.83 19.49, 45.58 2.52 M12.52 46.66 C25.43 31.8, 38.35 16.94, 51.22 2.13 M12.52 46.66 C23.78 33.7, 35.04 20.75, 51.22 2.13 M17.5 47.02 C30.15 32.46, 42.8 17.91, 56.21 2.49 M17.5 47.02 C30.55 32, 43.61 16.99, 56.21 2.49 M23.15 46.62 C34.98 33.01, 46.81 19.4, 61.85 2.09 M23.15 46.62 C34.24 33.86, 45.33 21.1, 61.85 2.09 M28.13 46.98 C36.26 37.63, 44.39 28.29, 66.84 2.45 M28.13 46.98 C41.87 31.18, 55.61 15.37, 66.84 2.45 M33.78 46.59 C47.1 31.26, 60.42 15.94, 72.48 2.06 M33.78 46.59 C42.64 36.39, 51.5 26.2, 72.48 2.06 M38.76 46.95 C51.58 32.21, 64.39 17.47, 77.47 2.42 M38.76 46.95 C48.95 35.22, 59.15 23.5, 77.47 2.42 M44.41 46.55 C58.51 30.33, 72.61 14.11, 83.11 2.02 M44.41 46.55 C59.01 29.75, 73.62 12.95, 83.11 2.02 M49.39 46.91 C63.42 30.78, 77.44 14.65, 88.1 2.38 M49.39 46.91 C59.15 35.69, 68.91 24.46, 88.1 2.38 M55.04 46.52 C63.57 36.7, 72.11 26.88, 93.74 1.99 M55.04 46.52 C63.83 36.41, 72.62 26.3, 93.74 1.99 M60.02 46.88 C74.16 30.62, 88.29 14.36, 98.73 2.35 M60.02 46.88 C71.52 33.65, 83.03 20.42, 98.73 2.35 M65.67 46.48 C73.64 37.31, 81.62 28.13, 104.37 1.96 M65.67 46.48 C73.77 37.16, 81.87 27.84, 104.37 1.96 M70.65 46.84 C81.88 33.93, 93.1 21.02, 109.36 2.32 M70.65 46.84 C80.72 35.26, 90.78 23.69, 109.36 2.32 M76.3 46.45 C89.98 30.71, 103.66 14.97, 115 1.92 M76.3 46.45 C91.45 29.02, 106.6 11.59, 115 1.92 M81.28 46.81 C91.98 34.51, 102.67 22.21, 119.99 2.28 M81.28 46.81 C96.32 29.51, 111.36 12.21, 119.99 2.28 M86.93 46.41 C99.87 31.53, 112.8 16.65, 125.63 1.89 M86.93 46.41 C101.49 29.66, 116.05 12.91, 125.63 1.89 M91.91 46.77 C105.56 31.07, 119.21 15.37, 130.62 2.25 M91.91 46.77 C100.28 37.16, 108.64 27.54, 130.62 2.25 M96.9 47.13 C111.03 30.88, 125.16 14.63, 136.26 1.85 M96.9 47.13 C104.89 37.95, 112.88 28.76, 136.26 1.85 M102.54 46.74 C115.57 31.76, 128.6 16.77, 141.25 2.21 M102.54 46.74 C112.69 35.07, 122.84 23.39, 141.25 2.21 M107.53 47.1 C118.81 34.13, 130.08 21.16, 148.21 0.31 M107.53 47.1 C117.56 35.57, 127.58 24.04, 148.21 0.31 M113.17 46.71 C126.35 31.55, 139.52 16.39, 152.54 1.42 M113.17 46.71 C126.26 31.65, 139.34 16.6, 152.54 1.42 M118.16 47.07 C128.73 34.91, 139.3 22.75, 156.21 3.29 M118.16 47.07 C130.25 33.16, 142.34 19.25, 156.21 3.29 M123.8 46.67 C132.09 37.14, 140.38 27.61, 157.92 7.43 M123.8 46.67 C131.24 38.11, 138.68 29.56, 157.92 7.43 M128.79 47.03 C141.02 32.97, 153.24 18.9, 160.28 10.81 M128.79 47.03 C140.24 33.86, 151.69 20.69, 160.28 10.81 M134.43 46.64 C140.89 39.21, 147.34 31.79, 160.68 16.45 M134.43 46.64 C144.84 34.67, 155.24 22.7, 160.68 16.45 M139.42 47 C147.31 37.93, 155.19 28.86, 160.42 22.85 M139.42 47 C147.12 38.14, 154.83 29.28, 160.42 22.85 M145.06 46.6 C150.06 40.85, 155.06 35.1, 160.81 28.49 M145.06 46.6 C150.27 40.61, 155.48 34.62, 160.81 28.49 M149.4 47.72 C151.97 44.75, 154.55 41.78, 159.89 35.64 M149.4 47.72 C151.98 44.74, 154.57 41.77, 159.89 35.64" stroke="#fcc2d7" stroke-width="0.5" fill="none"></path><path d="M11.5 0 M11.5 0 C54.99 0, 98.49 0, 147.12 0 M11.5 0 C61.73 0, 111.97 0, 147.12 0 M147.12 0 C154.79 0, 158.62 3.83, 158.62 11.5 M147.12 0 C154.79 0, 158.62 3.83, 158.62 11.5 M158.62 11.5 C158.62 17.99, 158.62 24.48, 158.62 34.5 M158.62 11.5 C158.62 20.21, 158.62 28.92, 158.62 34.5 M158.62 34.5 C158.62 42.16, 154.79 45.99, 147.12 45.99 M158.62 34.5 C158.62 42.16, 154.79 45.99, 147.12 45.99 M147.12 45.99 C119.09 45.99, 91.06 45.99, 11.5 45.99 M147.12 45.99 C99.55 45.99, 51.99 45.99, 11.5 45.99 M11.5 45.99 C3.83 45.99, 0 42.16, 0 34.5 M11.5 45.99 C3.83 45.99, 0 42.16, 0 34.5 M0 34.5 C0 25.85, 0 17.2, 0 11.5 M0 34.5 C0 29.65, 0 24.81, 0 11.5 M0 11.5 C0 3.83, 3.83 0, 11.5 0 M0 11.5 C0 3.83, 3.83 0, 11.5 0" stroke="#1e1e1e" stroke-width="1" fill="none"></path></g><g transform="translate(368.618896937688 24.157551820106164) rotate(0 37.119972229003906 12.5)"><text x="0" y="0" font-family="Virgil, Segoe UI Emoji" font-size="20px" fill="#1e1e1e" text-anchor="start" style="white-space: pre;" direction="ltr" dominant-baseline="text-before-edge">Uniswap</text></g><g transform="translate(769.0287196710028 21.514069494814976) rotate(0 47.43994903564453 12.5)"><text x="0" y="0" font-family="Virgil, Segoe UI Emoji" font-size="20px" fill="#1e1e1e" text-anchor="start" style="white-space: pre;" direction="ltr" dominant-baseline="text-before-edge">Sushiswap</text></g><g stroke-linecap="round" transform="translate(302.93267808821065 87.83319893213047) rotate(0 104.26049389918984 42.194686330025434)"><path d="M4.96 5.64 C4.96 5.64, 4.96 5.64, 4.96 5.64 M4.96 5.64 C4.96 5.64, 4.96 5.64, 4.96 5.64 M0.76 16.56 C4.34 12.45, 7.92 8.33, 13.23 2.22 M0.76 16.56 C3.46 13.46, 6.16 10.35, 13.23 2.22 M0.5 22.96 C7.18 15.28, 13.85 7.6, 18.87 1.83 M0.5 22.96 C5.96 16.68, 11.43 10.39, 18.87 1.83 M0.89 28.6 C8.42 19.94, 15.95 11.28, 23.86 2.19 M0.89 28.6 C7.94 20.5, 14.99 12.39, 23.86 2.19 M0.63 35 C11.75 22.22, 22.86 9.43, 28.84 2.55 M0.63 35 C7.76 26.8, 14.89 18.61, 28.84 2.55 M1.03 40.64 C13.04 26.82, 25.06 13, 34.49 2.15 M1.03 40.64 C10.86 29.33, 20.7 18.01, 34.49 2.15 M0.77 47.04 C14.6 31.13, 28.44 15.21, 39.47 2.51 M0.77 47.04 C13.92 31.91, 27.07 16.78, 39.47 2.51 M0.51 53.44 C14.48 37.37, 28.44 21.3, 45.12 2.12 M0.51 53.44 C15.89 35.75, 31.27 18.05, 45.12 2.12 M0.9 59.08 C15.33 42.48, 29.77 25.87, 50.1 2.48 M0.9 59.08 C15.98 41.73, 31.06 24.38, 50.1 2.48 M0.64 65.48 C20.56 42.57, 40.48 19.65, 55.75 2.08 M0.64 65.48 C20.61 42.5, 40.58 19.53, 55.75 2.08 M2.35 69.61 C21.62 47.44, 40.9 25.26, 60.73 2.45 M2.35 69.61 C24.91 43.66, 47.47 17.7, 60.73 2.45 M3.4 74.5 C16.91 58.95, 30.43 43.4, 66.38 2.05 M3.4 74.5 C21.41 53.78, 39.42 33.06, 66.38 2.05 M5.76 77.88 C31.05 48.78, 56.35 19.68, 71.36 2.41 M5.76 77.88 C31.94 47.77, 58.12 17.65, 71.36 2.41 M8.12 81.26 C23.44 63.64, 38.75 46.02, 77.01 2.02 M8.12 81.26 C35.02 50.31, 61.92 19.37, 77.01 2.02 M11.14 83.88 C30 62.19, 48.86 40.5, 81.99 2.38 M11.14 83.88 C28.83 63.53, 46.53 43.18, 81.99 2.38 M14.82 85.75 C34.71 62.87, 54.61 39.98, 87.64 1.98 M14.82 85.75 C42.98 53.35, 71.15 20.94, 87.64 1.98 M21.11 84.6 C47.41 54.36, 73.7 24.11, 92.62 2.34 M21.11 84.6 C37.56 65.69, 54 46.78, 92.62 2.34 M26.76 84.21 C47.86 59.94, 68.95 35.67, 98.27 1.95 M26.76 84.21 C49.77 57.74, 72.78 31.27, 98.27 1.95 M31.74 84.57 C58.56 53.73, 85.37 22.88, 103.25 2.31 M31.74 84.57 C54.41 58.5, 77.07 32.43, 103.25 2.31 M37.39 84.18 C62.51 55.27, 87.64 26.37, 108.24 2.67 M37.39 84.18 C57.1 61.5, 76.81 38.82, 108.24 2.67 M42.37 84.54 C68.25 54.77, 94.12 25.01, 113.88 2.27 M42.37 84.54 C61.97 62, 81.56 39.46, 113.88 2.27 M48.02 84.14 C73.37 54.97, 98.73 25.8, 118.87 2.63 M48.02 84.14 C67.49 61.74, 86.96 39.34, 118.87 2.63 M53 84.5 C73.82 60.55, 94.64 36.6, 124.51 2.24 M53 84.5 C78.06 55.68, 103.11 26.86, 124.51 2.24 M57.99 84.86 C83 56.09, 108.01 27.32, 129.5 2.6 M57.99 84.86 C84.18 54.73, 110.37 24.6, 129.5 2.6 M63.63 84.47 C86.16 58.56, 108.68 32.65, 135.14 2.2 M63.63 84.47 C90.89 53.12, 118.14 21.77, 135.14 2.2 M68.62 84.83 C83.94 67.21, 99.26 49.59, 140.13 2.56 M68.62 84.83 C93.16 56.6, 117.7 28.37, 140.13 2.56 M74.26 84.43 C93.88 61.87, 113.49 39.31, 145.78 2.17 M74.26 84.43 C94.81 60.8, 115.35 37.17, 145.78 2.17 M79.25 84.79 C106.02 54, 132.79 23.2, 150.76 2.53 M79.25 84.79 C95.84 65.71, 112.43 46.63, 150.76 2.53 M84.89 84.4 C113.44 51.56, 141.99 18.72, 156.41 2.13 M84.89 84.4 C111.78 53.47, 138.67 22.54, 156.41 2.13 M89.88 84.76 C110.78 60.71, 131.69 36.67, 161.39 2.49 M89.88 84.76 C118.15 52.24, 146.42 19.72, 161.39 2.49 M95.52 84.36 C110.47 67.18, 125.41 49.99, 167.04 2.1 M95.52 84.36 C112.69 64.61, 129.86 44.87, 167.04 2.1 M100.51 84.72 C126.92 54.34, 153.33 23.97, 172.02 2.46 M100.51 84.72 C117.06 65.68, 133.62 46.64, 172.02 2.46 M106.15 84.33 C121.29 66.92, 136.43 49.51, 177.67 2.07 M106.15 84.33 C124.64 63.07, 143.12 41.8, 177.67 2.07 M111.14 84.69 C128.7 64.49, 146.26 44.29, 182.65 2.43 M111.14 84.69 C130.8 62.08, 150.45 39.47, 182.65 2.43 M116.78 84.29 C131.56 67.3, 146.33 50.31, 188.95 1.28 M116.78 84.29 C138.15 59.72, 159.51 35.15, 188.95 1.28 M121.77 84.65 C143.45 59.72, 165.13 34.78, 193.94 1.64 M121.77 84.65 C143.11 60.1, 164.46 35.55, 193.94 1.64 M127.42 84.26 C153.94 53.75, 180.47 23.23, 198.27 2.75 M127.42 84.26 C141.83 67.68, 156.24 51.11, 198.27 2.75 M132.4 84.62 C156.89 56.45, 181.39 28.27, 201.94 4.62 M132.4 84.62 C146.34 68.59, 160.27 52.56, 201.94 4.62 M138.05 84.23 C164.55 53.73, 191.06 23.24, 204.96 7.25 M138.05 84.23 C159.28 59.8, 180.52 35.37, 204.96 7.25 M143.03 84.59 C166.31 57.81, 189.59 31.03, 207.98 9.87 M143.03 84.59 C164.52 59.86, 186.01 35.14, 207.98 9.87 M148.68 84.19 C168.86 60.97, 189.04 37.75, 209.03 14.76 M148.68 84.19 C170.43 59.16, 192.19 34.13, 209.03 14.76 M153.66 84.55 C171.68 63.83, 189.69 43.11, 210.74 18.89 M153.66 84.55 C174.52 60.56, 195.37 36.57, 210.74 18.89 M159.31 84.16 C177.07 63.72, 194.84 43.28, 211.13 24.53 M159.31 84.16 C177 63.8, 194.7 43.44, 211.13 24.53 M164.29 84.52 C181.03 65.27, 197.76 46.01, 210.87 30.93 M164.29 84.52 C174.44 72.84, 184.6 61.16, 210.87 30.93 M169.94 84.12 C184.97 66.82, 200.01 49.52, 211.27 36.58 M169.94 84.12 C180.46 72.01, 190.99 59.91, 211.27 36.58 M174.92 84.48 C184.45 73.52, 193.98 62.56, 211.01 42.97 M174.92 84.48 C187.14 70.43, 199.35 56.38, 211.01 42.97 M179.91 84.84 C187.13 76.54, 194.35 68.23, 211.4 48.62 M179.91 84.84 C191.89 71.05, 203.88 57.27, 211.4 48.62 M185.55 84.45 C194.35 74.33, 203.14 64.21, 211.14 55.01 M185.55 84.45 C191 78.18, 196.45 71.91, 211.14 55.01 M189.23 86.32 C196.31 78.17, 203.39 70.03, 208.91 63.68 M189.23 86.32 C196.82 77.59, 204.41 68.85, 208.91 63.68 M196.84 83.66 C200.75 79.16, 204.67 74.65, 207.99 70.83 M196.84 83.66 C199.77 80.28, 202.71 76.9, 207.99 70.83" stroke="#a5d8ff" stroke-width="0.5" fill="none"></path><path d="M21.1 0 M21.1 0 C65.19 0, 109.29 0, 187.42 0 M21.1 0 C58.04 0, 94.98 0, 187.42 0 M187.42 0 C201.49 0, 208.52 7.03, 208.52 21.1 M187.42 0 C201.49 0, 208.52 7.03, 208.52 21.1 M208.52 21.1 C208.52 32.97, 208.52 44.84, 208.52 63.29 M208.52 21.1 C208.52 30.92, 208.52 40.75, 208.52 63.29 M208.52 63.29 C208.52 77.36, 201.49 84.39, 187.42 84.39 M208.52 63.29 C208.52 77.36, 201.49 84.39, 187.42 84.39 M187.42 84.39 C133.42 84.39, 79.41 84.39, 21.1 84.39 M187.42 84.39 C136.61 84.39, 85.8 84.39, 21.1 84.39 M21.1 84.39 C7.03 84.39, 0 77.36, 0 63.29 M21.1 84.39 C7.03 84.39, 0 77.36, 0 63.29 M0 63.29 C0 48.51, 0 33.72, 0 21.1 M0 63.29 C0 53.9, 0 44.5, 0 21.1 M0 21.1 C0 7.03, 7.03 0, 21.1 0 M0 21.1 C0 7.03, 7.03 0, 21.1 0" stroke="#1e1e1e" stroke-width="1" fill="none"></path></g><g transform="translate(345.42601234979475 120.04304037802103) rotate(0 60.20996856689453 12.5)"><text x="0" y="0" font-family="Virgil, Segoe UI Emoji" font-size="20px" fill="#1e1e1e" text-anchor="start" style="white-space: pre;" direction="ltr" dominant-baseline="text-before-edge">WETH/USDC</text></g><g transform="translate(761.9677894404974 116.59314185830954) rotate(0 60.20996856689453 12.5)"><text x="0" y="0" font-family="Virgil, Segoe UI Emoji" font-size="20px" fill="#1e1e1e" text-anchor="start" style="white-space: pre;" direction="ltr" dominant-baseline="text-before-edge">WETH/USDC</text></g><g transform="translate(306.1692566568121 424.8934334104324) rotate(0 108.20995330810547 12.5)"><text x="0" y="0" font-family="Virgil, Segoe UI Emoji" font-size="20px" fill="#1e1e1e" text-anchor="start" style="white-space: pre;" direction="ltr" dominant-baseline="text-before-edge">1 WETH = 1800 USDC</text></g><g transform="translate(712.978396905339 421.13513788981254) rotate(0 106.70995330810547 12.5)"><text x="0" y="0" font-family="Virgil, Segoe UI Emoji" font-size="20px" fill="#1e1e1e" text-anchor="start" style="white-space: pre;" direction="ltr" dominant-baseline="text-before-edge">1 WETH = 1780 USDC</text></g><g transform="translate(254.6488105329834 230.28090642461575) rotate(0 62.359962463378906 12.5)"><text x="0" y="0" font-family="Virgil, Segoe UI Emoji" font-size="20px" fill="#1e1e1e" text-anchor="start" style="white-space: pre;" direction="ltr" dominant-baseline="text-before-edge">3,586 WETH</text></g><g transform="translate(427.97053522574555 227.14436755723) rotate(0 84.38994598388672 12.5)"><text x="0" y="0" font-family="Virgil, Segoe UI Emoji" font-size="20px" fill="#1e1e1e" text-anchor="start" style="white-space: pre;" direction="ltr" dominant-baseline="text-before-edge">6,454,800 USDC</text></g><g transform="translate(240.76743657815112 551.0729747819023) rotate(0 46.509979248046875 12.5)"><text x="0" y="0" font-family="Virgil, Segoe UI Emoji" font-size="20px" fill="#1e1e1e" text-anchor="start" style="white-space: pre;" direction="ltr" dominant-baseline="text-before-edge">x * y = k</text></g><g transform="translate(109.99452559504516 597.4802400579392) rotate(0 177.74819946289062 12.5)"><text x="0" y="0" font-family="Virgil, Segoe UI Emoji" font-size="20px" fill="#1971c2" text-anchor="start" style="white-space: pre;" direction="ltr" dominant-baseline="text-before-edge">3,586 * 6,454,800 ≈ 2.314 * 10^10</text></g><g transform="translate(253.90439746220443 332.35376744591485) rotate(0 162.919921875 12.5)"><text x="0" y="0" font-family="Virgil, Segoe UI Emoji" font-size="20px" fill="#1e1e1e" text-anchor="start" style="white-space: pre;" direction="ltr" dominant-baseline="text-before-edge">3,586 WETH = 6,454,800 USDC</text></g><g transform="translate(413.90613017309477 342.8314549757233) rotate(0 49.559967041015625 25)"><text x="0" y="0" font-family="Virgil, Segoe UI Emoji" font-size="20px" fill="#1e1e1e" text-anchor="start" style="white-space: pre;" direction="ltr" dominant-baseline="text-before-edge">______</text><text x="0" y="25" font-family="Virgil, Segoe UI Emoji" font-size="20px" fill="#1e1e1e" text-anchor="start" style="white-space: pre;" direction="ltr" dominant-baseline="text-before-edge">  3,586</text></g><g stroke-linecap="round"><g transform="translate(275.23345022928817 362.52456439358684) rotate(0 72.24190482326148 20.657667918147126)"><path d="M0 0 C5.42 6.77, 8.46 36.39, 32.54 40.63 C56.62 44.88, 125.83 28, 144.48 25.47 M0 0 C5.42 6.77, 8.46 36.39, 32.54 40.63 C56.62 44.88, 125.83 28, 144.48 25.47" stroke="#e03131" stroke-width="1" fill="none"></path></g><g transform="translate(275.23345022928817 362.52456439358684) rotate(0 72.24190482326148 20.657667918147126)"><path d="M144.48 25.47 L132.28 34.2 L129.96 21.73 L144.48 25.47" stroke="none" stroke-width="0" fill="#e03131" fill-rule="evenodd"></path><path d="M144.48 25.47 C139.73 28.87, 134.97 32.27, 132.28 34.2 M144.48 25.47 C141.08 27.91, 137.68 30.34, 132.28 34.2 M132.28 34.2 C131.8 31.64, 131.33 29.08, 129.96 21.73 M132.28 34.2 C131.74 31.29, 131.2 28.39, 129.96 21.73 M129.96 21.73 C133.71 22.7, 137.46 23.66, 144.48 25.47 M129.96 21.73 C133.56 22.66, 137.17 23.59, 144.48 25.47 M144.48 25.47 C144.48 25.47, 144.48 25.47, 144.48 25.47 M144.48 25.47 C144.48 25.47, 144.48 25.47, 144.48 25.47" stroke="#e03131" stroke-width="1" fill="none"></path></g></g><mask></mask><g stroke-linecap="round" transform="translate(642.6469069927745 187.5830792444758) rotate(0 88.7366861465159 49.27690870695642)"><path d="M8.98 27.68 C8.98 27.68, 8.98 27.68, 8.98 27.68 M8.98 27.68 C8.98 27.68, 8.98 27.68, 8.98 27.68 M4.12 39.36 C8.45 34.38, 12.78 29.4, 21.18 19.74 M4.12 39.36 C8.32 34.53, 12.52 29.7, 21.18 19.74 M0.58 49.53 C7.47 41.6, 14.37 33.67, 34.04 11.04 M0.58 49.53 C12.24 36.11, 23.91 22.7, 34.04 11.04 M0.98 55.17 C9.25 45.66, 17.52 36.15, 42.31 7.63 M0.98 55.17 C17.34 36.35, 33.7 17.53, 42.31 7.63 M2.68 59.31 C17.05 42.77, 31.43 26.24, 49.26 5.72 M2.68 59.31 C16.51 43.4, 30.34 27.5, 49.26 5.72 M5.05 62.69 C19.48 46.08, 33.91 29.48, 52.94 7.59 M5.05 62.69 C16.06 50.02, 27.07 37.35, 52.94 7.59 M6.75 66.82 C25.1 45.72, 43.44 24.61, 61.21 4.18 M6.75 66.82 C23.21 47.89, 39.66 28.96, 61.21 4.18 M9.11 70.2 C30.17 45.98, 51.22 21.76, 68.82 1.52 M9.11 70.2 C27.56 48.98, 46.01 27.75, 68.82 1.52 M11.48 73.58 C34.11 47.55, 56.73 21.52, 75.12 0.37 M11.48 73.58 C36.51 44.78, 61.54 15.99, 75.12 0.37 M14.5 76.2 C28.33 60.28, 42.17 44.36, 79.45 1.49 M14.5 76.2 C27.81 60.89, 41.12 45.57, 79.45 1.49 M17.52 78.83 C40.71 52.14, 63.91 25.46, 85.09 1.09 M17.52 78.83 C41.85 50.84, 66.18 22.84, 85.09 1.09 M20.53 81.45 C41.8 56.98, 63.07 32.52, 90.08 1.45 M20.53 81.45 C34.48 65.41, 48.42 49.38, 90.08 1.45 M24.21 83.32 C44.94 59.47, 65.68 35.62, 95.06 1.81 M24.21 83.32 C42.14 62.7, 60.07 42.07, 95.06 1.81 M27.88 85.19 C51.05 58.54, 74.22 31.88, 100.71 1.42 M27.88 85.19 C56.22 52.59, 84.56 20, 100.71 1.42 M31.56 87.06 C54.37 60.82, 77.18 34.58, 105.04 2.53 M31.56 87.06 C52.41 63.07, 73.27 39.08, 105.04 2.53 M35.23 88.93 C57.77 63, 80.31 37.07, 110.02 2.89 M35.23 88.93 C63.32 56.62, 91.4 24.32, 110.02 2.89 M38.91 90.8 C63.07 63, 87.24 35.2, 115.01 3.25 M38.91 90.8 C63.64 62.35, 88.37 33.9, 115.01 3.25 M43.24 91.91 C71.46 59.45, 99.67 26.99, 119.34 4.37 M43.24 91.91 C71.78 59.08, 100.32 26.25, 119.34 4.37 M46.91 93.78 C73.69 62.98, 100.46 32.18, 123.67 5.48 M46.91 93.78 C63.03 75.25, 79.14 56.72, 123.67 5.48 M51.25 94.9 C67.18 76.57, 83.11 58.24, 128.66 5.84 M51.25 94.9 C75.57 66.91, 99.9 38.92, 128.66 5.84 M55.58 96.01 C75.18 73.47, 94.77 50.92, 132.99 6.96 M55.58 96.01 C73.62 75.26, 91.66 54.5, 132.99 6.96 M60.56 96.37 C87.2 65.73, 113.83 35.1, 136.67 8.83 M60.56 96.37 C85.72 67.43, 110.87 38.5, 136.67 8.83 M64.89 97.49 C94.85 63.02, 124.81 28.56, 141 9.94 M64.89 97.49 C83.91 75.62, 102.92 53.75, 141 9.94 M69.88 97.85 C93.12 71.11, 116.37 44.37, 144.67 11.81 M69.88 97.85 C90.24 74.43, 110.59 51.01, 144.67 11.81 M74.87 98.21 C100.39 68.85, 125.92 39.48, 148.35 13.68 M74.87 98.21 C102.53 66.39, 130.19 34.57, 148.35 13.68 M79.86 98.57 C98.61 77, 117.36 55.42, 152.02 15.55 M79.86 98.57 C108.61 65.49, 137.36 32.42, 152.02 15.55 M84.84 98.93 C99.4 82.18, 113.95 65.44, 155.7 17.42 M84.84 98.93 C105.4 75.28, 125.96 51.63, 155.7 17.42 M89.83 99.29 C112.98 72.66, 136.12 46.03, 159.37 19.29 M89.83 99.29 C109.26 76.93, 128.69 54.58, 159.37 19.29 M95.47 98.89 C113.74 77.88, 132.01 56.86, 162.39 21.91 M95.47 98.89 C117.49 73.56, 139.52 48.23, 162.39 21.91 M100.46 99.25 C121.86 74.63, 143.26 50.01, 165.41 24.54 M100.46 99.25 C119.71 77.11, 138.96 54.96, 165.41 24.54 M106.1 98.86 C129.12 72.37, 152.15 45.89, 168.43 27.16 M106.1 98.86 C130.56 70.73, 155.01 42.59, 168.43 27.16 M111.09 99.22 C123.98 84.39, 136.88 69.55, 171.45 29.79 M111.09 99.22 C131.69 75.52, 152.29 51.82, 171.45 29.79 M118.7 96.56 C136.56 76.02, 154.41 55.48, 173.15 33.92 M118.7 96.56 C131.77 81.52, 144.84 66.49, 173.15 33.92 M125.66 94.66 C136.28 82.43, 146.9 70.21, 175.52 37.3 M125.66 94.66 C141.48 76.46, 157.29 58.26, 175.52 37.3 M129.99 95.77 C144.16 79.47, 158.33 63.16, 177.88 40.68 M129.99 95.77 C148.81 74.12, 167.64 52.46, 177.88 40.68 M138.25 92.36 C151.26 77.4, 164.27 62.43, 178.93 45.57 M138.25 92.36 C147.94 81.21, 157.63 70.07, 178.93 45.57 M145.87 89.7 C153.73 80.66, 161.59 71.61, 179.32 51.21 M145.87 89.7 C153.67 80.72, 161.48 71.74, 179.32 51.21 M158.73 81 C165.63 73.06, 172.53 65.12, 176.44 60.63 M158.73 81 C164.55 74.3, 170.37 67.6, 176.44 60.63" stroke="#ffec99" stroke-width="0.5" fill="none"></path><path d="M177.47 49.28 C177.47 51.12, 177.29 52.97, 176.92 54.79 C176.54 56.62, 175.99 58.45, 175.25 60.24 C174.51 62.04, 173.59 63.82, 172.49 65.55 C171.4 67.29, 170.12 69, 168.69 70.66 C167.25 72.31, 165.63 73.94, 163.87 75.49 C162.11 77.05, 160.18 78.56, 158.11 80 C156.05 81.44, 153.82 82.82, 151.48 84.12 C149.14 85.42, 146.65 86.66, 144.06 87.8 C141.47 88.95, 138.75 90.02, 135.95 91 C133.14 91.98, 130.22 92.88, 127.24 93.67 C124.25 94.47, 121.17 95.18, 118.04 95.79 C114.92 96.4, 111.71 96.91, 108.48 97.32 C105.25 97.73, 101.96 98.04, 98.67 98.24 C95.38 98.45, 92.05 98.55, 88.74 98.55 C85.42 98.55, 82.09 98.45, 78.8 98.24 C75.51 98.04, 72.22 97.73, 68.99 97.32 C65.76 96.91, 62.55 96.4, 59.43 95.79 C56.3 95.18, 53.22 94.47, 50.24 93.67 C47.25 92.88, 44.33 91.98, 41.53 91 C38.72 90.02, 36 88.95, 33.41 87.8 C30.82 86.66, 28.33 85.42, 25.99 84.12 C23.65 82.82, 21.42 81.44, 19.36 80 C17.29 78.56, 15.36 77.05, 13.6 75.49 C11.84 73.94, 10.22 72.31, 8.79 70.66 C7.35 69, 6.07 67.29, 4.98 65.55 C3.89 63.82, 2.96 62.04, 2.22 60.24 C1.49 58.45, 0.93 56.62, 0.56 54.79 C0.19 52.97, 0 51.12, 0 49.28 C0 47.44, 0.19 45.59, 0.56 43.76 C0.93 41.93, 1.49 40.1, 2.22 38.31 C2.96 36.52, 3.89 34.74, 4.98 33 C6.07 31.27, 7.35 29.55, 8.79 27.9 C10.22 26.24, 11.84 24.62, 13.6 23.06 C15.36 21.5, 17.29 19.99, 19.36 18.55 C21.42 17.12, 23.65 15.73, 25.99 14.43 C28.33 13.13, 30.82 11.9, 33.41 10.75 C36 9.6, 38.72 8.53, 41.53 7.55 C44.33 6.57, 47.25 5.68, 50.24 4.88 C53.22 4.08, 56.3 3.37, 59.43 2.77 C62.55 2.16, 65.76 1.64, 68.99 1.24 C72.22 0.83, 75.51 0.52, 78.8 0.31 C82.09 0.1, 85.42 0, 88.74 0 C92.05 0, 95.38 0.1, 98.67 0.31 C101.96 0.52, 105.25 0.83, 108.48 1.24 C111.71 1.64, 114.92 2.16, 118.04 2.77 C121.17 3.37, 124.25 4.08, 127.24 4.88 C130.22 5.68, 133.14 6.57, 135.95 7.55 C138.75 8.53, 141.47 9.6, 144.06 10.75 C146.65 11.9, 149.14 13.13, 151.48 14.43 C153.82 15.73, 156.05 17.12, 158.11 18.55 C160.18 19.99, 162.11 21.5, 163.87 23.06 C165.63 24.62, 167.25 26.24, 168.69 27.9 C170.12 29.55, 171.4 31.27, 172.49 33 C173.59 34.74, 174.51 36.52, 175.25 38.31 C175.99 40.1, 176.54 41.93, 176.92 43.76 C177.29 45.59, 177.38 48.36, 177.47 49.28 C177.57 50.2, 177.57 48.36, 177.47 49.28" stroke="#1e1e1e" stroke-width="1" fill="none"></path></g><g stroke-linecap="round" transform="translate(833.7080245856259 185.02912451943666) rotate(0 88.73668614651592 49.27690870695642)"><path d="M8.98 27.68 C8.98 27.68, 8.98 27.68, 8.98 27.68 M8.98 27.68 C8.98 27.68, 8.98 27.68, 8.98 27.68 M4.12 39.36 C7.84 35.08, 11.56 30.81, 21.18 19.74 M4.12 39.36 C9.94 32.67, 15.76 25.98, 21.18 19.74 M0.58 49.53 C8.02 40.97, 15.47 32.41, 34.04 11.04 M0.58 49.53 C10.08 38.61, 19.57 27.68, 34.04 11.04 M0.98 55.17 C16.24 37.62, 31.49 20.07, 42.31 7.63 M0.98 55.17 C10.3 44.44, 19.63 33.72, 42.31 7.63 M2.68 59.31 C12.35 48.19, 22.02 37.06, 49.26 5.72 M2.68 59.31 C19.05 40.48, 35.42 21.65, 49.26 5.72 M5.05 62.69 C15.99 50.1, 26.94 37.51, 52.94 7.59 M5.05 62.69 C22.84 42.22, 40.64 21.74, 52.94 7.59 M6.75 66.82 C26.09 44.57, 45.43 22.33, 61.21 4.18 M6.75 66.82 C27.55 42.9, 48.34 18.98, 61.21 4.18 M9.11 70.2 C29.01 47.31, 48.9 24.43, 68.82 1.52 M9.11 70.2 C22.39 54.93, 35.66 39.66, 68.82 1.52 M11.48 73.58 C25.6 57.33, 39.73 41.08, 75.12 0.37 M11.48 73.58 C32.92 48.92, 54.36 24.25, 75.12 0.37 M14.5 76.2 C39.47 47.47, 64.45 18.74, 79.45 1.49 M14.5 76.2 C36.1 51.35, 57.7 26.51, 79.45 1.49 M17.52 78.83 C43.11 49.38, 68.71 19.93, 85.09 1.09 M17.52 78.83 C33.66 60.25, 49.81 41.67, 85.09 1.09 M20.53 81.45 C44.72 53.62, 68.91 25.8, 90.08 1.45 M20.53 81.45 C39.15 60.03, 57.77 38.62, 90.08 1.45 M24.21 83.32 C46.22 58, 68.23 32.68, 95.06 1.81 M24.21 83.32 C43.46 61.18, 62.7 39.04, 95.06 1.81 M27.88 85.19 C53.56 55.65, 79.24 26.12, 100.71 1.42 M27.88 85.19 C50.04 59.7, 72.2 34.21, 100.71 1.42 M31.56 87.06 C54.8 60.32, 78.04 33.58, 105.04 2.53 M31.56 87.06 C52.08 63.46, 72.59 39.86, 105.04 2.53 M35.23 88.93 C64.57 55.19, 93.9 21.44, 110.02 2.89 M35.23 88.93 C59.88 60.58, 84.53 32.22, 110.02 2.89 M38.91 90.8 C54.81 72.51, 70.71 54.22, 115.01 3.25 M38.91 90.8 C59.24 67.41, 79.56 44.03, 115.01 3.25 M43.24 91.91 C60.31 72.28, 77.37 52.65, 119.34 4.37 M43.24 91.91 C69.26 61.98, 95.28 32.05, 119.34 4.37 M46.91 93.78 C63.46 74.75, 80 55.72, 123.67 5.48 M46.91 93.78 C70.06 67.15, 93.21 40.52, 123.67 5.48 M51.25 94.9 C72.18 70.82, 93.11 46.74, 128.66 5.84 M51.25 94.9 C78.39 63.67, 105.53 32.45, 128.66 5.84 M55.58 96.01 C77.04 71.32, 98.5 46.63, 132.99 6.96 M55.58 96.01 C71.82 77.32, 88.07 58.64, 132.99 6.96 M60.56 96.37 C84.63 68.69, 108.69 41.01, 136.67 8.83 M60.56 96.37 C81.55 72.23, 102.54 48.08, 136.67 8.83 M64.89 97.49 C91.48 66.91, 118.06 36.33, 141 9.94 M64.89 97.49 C86.21 72.97, 107.52 48.45, 141 9.94 M69.88 97.85 C85.7 79.66, 101.51 61.46, 144.67 11.81 M69.88 97.85 C88.48 76.45, 107.08 55.06, 144.67 11.81 M74.87 98.21 C96.98 72.77, 119.09 47.34, 148.35 13.68 M74.87 98.21 C101.42 67.66, 127.98 37.12, 148.35 13.68 M79.86 98.57 C106.55 67.86, 133.25 37.14, 152.02 15.55 M79.86 98.57 C102.32 72.73, 124.78 46.89, 152.02 15.55 M84.84 98.93 C100.11 81.37, 115.37 63.81, 155.7 17.42 M84.84 98.93 C110.62 69.28, 136.39 39.63, 155.7 17.42 M89.83 99.29 C108.57 77.72, 127.32 56.16, 159.37 19.29 M89.83 99.29 C111.84 73.97, 133.85 48.65, 159.37 19.29 M95.47 98.89 C114.9 76.55, 134.32 54.2, 162.39 21.91 M95.47 98.89 C119.44 71.32, 143.41 43.74, 162.39 21.91 M100.46 99.25 C123.33 72.94, 146.2 46.63, 165.41 24.54 M100.46 99.25 C115.3 82.19, 130.13 65.12, 165.41 24.54 M106.1 98.86 C127.1 74.71, 148.09 50.56, 168.43 27.16 M106.1 98.86 C123.34 79.02, 140.59 59.19, 168.43 27.16 M111.09 99.22 C130.63 76.74, 150.17 54.26, 171.45 29.79 M111.09 99.22 C124.48 83.81, 137.87 68.41, 171.45 29.79 M118.7 96.56 C133.99 78.98, 149.27 61.4, 173.15 33.92 M118.7 96.56 C130.24 83.29, 141.78 70.01, 173.15 33.92 M125.66 94.66 C138.34 80.06, 151.03 65.47, 175.52 37.3 M125.66 94.66 C144.74 72.71, 163.82 50.76, 175.52 37.3 M129.99 95.77 C142.5 81.37, 155.02 66.97, 177.88 40.68 M129.99 95.77 C145.2 78.27, 160.42 60.76, 177.88 40.68 M138.25 92.36 C149.57 79.34, 160.89 66.32, 178.93 45.57 M138.25 92.36 C146.7 82.64, 155.14 72.93, 178.93 45.57 M145.87 89.7 C156.99 76.9, 168.12 64.1, 179.32 51.21 M145.87 89.7 C156.2 77.81, 166.54 65.92, 179.32 51.21 M158.73 81 C163.92 75.03, 169.12 69.05, 176.44 60.63 M158.73 81 C164.11 74.8, 169.5 68.6, 176.44 60.63" stroke="#ffec99" stroke-width="0.5" fill="none"></path><path d="M177.47 49.28 C177.47 51.12, 177.29 52.97, 176.92 54.79 C176.54 56.62, 175.99 58.45, 175.25 60.24 C174.51 62.04, 173.59 63.82, 172.49 65.55 C171.4 67.29, 170.12 69, 168.69 70.66 C167.25 72.31, 165.63 73.94, 163.87 75.49 C162.11 77.05, 160.18 78.56, 158.11 80 C156.05 81.44, 153.82 82.82, 151.48 84.12 C149.14 85.42, 146.65 86.66, 144.06 87.8 C141.47 88.95, 138.75 90.02, 135.95 91 C133.14 91.98, 130.22 92.88, 127.24 93.67 C124.25 94.47, 121.17 95.18, 118.04 95.79 C114.92 96.4, 111.71 96.91, 108.48 97.32 C105.25 97.73, 101.96 98.04, 98.67 98.24 C95.38 98.45, 92.05 98.55, 88.74 98.55 C85.42 98.55, 82.09 98.45, 78.8 98.24 C75.51 98.04, 72.22 97.73, 68.99 97.32 C65.76 96.91, 62.55 96.4, 59.43 95.79 C56.3 95.18, 53.22 94.47, 50.24 93.67 C47.25 92.88, 44.33 91.98, 41.53 91 C38.72 90.02, 36 88.95, 33.41 87.8 C30.82 86.66, 28.33 85.42, 25.99 84.12 C23.65 82.82, 21.42 81.44, 19.36 80 C17.29 78.56, 15.36 77.05, 13.6 75.49 C11.84 73.94, 10.22 72.31, 8.79 70.66 C7.35 69, 6.07 67.29, 4.98 65.55 C3.89 63.82, 2.96 62.04, 2.22 60.24 C1.49 58.45, 0.93 56.62, 0.56 54.79 C0.19 52.97, 0 51.12, 0 49.28 C0 47.44, 0.19 45.59, 0.56 43.76 C0.93 41.93, 1.49 40.1, 2.22 38.31 C2.96 36.52, 3.89 34.74, 4.98 33 C6.07 31.27, 7.35 29.55, 8.79 27.9 C10.22 26.24, 11.84 24.62, 13.6 23.06 C15.36 21.5, 17.29 19.99, 19.36 18.55 C21.42 17.12, 23.65 15.73, 25.99 14.43 C28.33 13.13, 30.82 11.9, 33.41 10.75 C36 9.6, 38.72 8.53, 41.53 7.55 C44.33 6.57, 47.25 5.68, 50.24 4.88 C53.22 4.08, 56.3 3.37, 59.43 2.77 C62.55 2.16, 65.76 1.64, 68.99 1.24 C72.22 0.83, 75.51 0.52, 78.8 0.31 C82.09 0.1, 85.42 0, 88.74 0 C92.05 0, 95.38 0.1, 98.67 0.31 C101.96 0.52, 105.25 0.83, 108.48 1.24 C111.71 1.64, 114.92 2.16, 118.04 2.77 C121.17 3.37, 124.25 4.08, 127.24 4.88 C130.22 5.68, 133.14 6.57, 135.95 7.55 C138.75 8.53, 141.47 9.6, 144.06 10.75 C146.65 11.9, 149.14 13.13, 151.48 14.43 C153.82 15.73, 156.05 17.12, 158.11 18.55 C160.18 19.99, 162.11 21.5, 163.87 23.06 C165.63 24.62, 167.25 26.24, 168.69 27.9 C170.12 29.55, 171.4 31.27, 172.49 33 C173.59 34.74, 174.51 36.52, 175.25 38.31 C175.99 40.1, 176.54 41.93, 176.92 43.76 C177.29 45.59, 177.38 48.36, 177.47 49.28 C177.57 50.2, 177.57 48.36, 177.47 49.28" stroke="#1e1e1e" stroke-width="1" fill="none"></path></g><g transform="translate(674.1991345204088 223.57824644355605) rotate(0 54.66997528076175 12.5)"><text x="0" y="0" font-family="Virgil, Segoe UI Emoji" font-size="20px" fill="#1e1e1e" text-anchor="start" style="white-space: pre;" direction="ltr" dominant-baseline="text-before-edge">1,123 WETH</text></g><g transform="translate(843.6134261776231 220.73299964734724) rotate(0 79.50995635986328 12.5)"><text x="0" y="0" font-family="Virgil, Segoe UI Emoji" font-size="20px" fill="#1e1e1e" text-anchor="start" style="white-space: pre;" direction="ltr" dominant-baseline="text-before-edge">1,998,940 USDC</text></g><g transform="translate(681.5423705908431 319.481542157333) rotate(0 150.3499298095703 12.5)"><text x="0" y="0" font-family="Virgil, Segoe UI Emoji" font-size="20px" fill="#1e1e1e" text-anchor="start" style="white-space: pre;" direction="ltr" dominant-baseline="text-before-edge">1,123 WETH = 1,998,940 USDC</text></g><g transform="translate(826.6852653276992 327.11398289093086) rotate(0 49.559967041015625 25)"><text x="0" y="0" font-family="Virgil, Segoe UI Emoji" font-size="20px" fill="#1e1e1e" text-anchor="start" style="white-space: pre;" direction="ltr" dominant-baseline="text-before-edge">______</text><text x="0" y="25" font-family="Virgil, Segoe UI Emoji" font-size="20px" fill="#1e1e1e" text-anchor="start" style="white-space: pre;" direction="ltr" dominant-baseline="text-before-edge">  1,123</text></g><g stroke-linecap="round"><g transform="translate(699.9429247980447 349.65233910500683) rotate(0 66.12961790852171 19.12397918663555)"><path d="M0 0 C3.39 6.28, -1.73 33.94, 20.31 37.69 C42.36 41.45, 113.6 25.06, 132.26 22.53 M0 0 C3.39 6.28, -1.73 33.94, 20.31 37.69 C42.36 41.45, 113.6 25.06, 132.26 22.53" stroke="#e03131" stroke-width="1" fill="none"></path></g><g transform="translate(699.9429247980447 349.65233910500683) rotate(0 66.12961790852171 19.12397918663555)"><path d="M132.26 22.53 L120.01 31.19 L117.75 18.71 L132.26 22.53" stroke="none" stroke-width="0" fill="#e03131" fill-rule="evenodd"></path><path d="M132.26 22.53 C129.46 24.51, 126.66 26.49, 120.01 31.19 M132.26 22.53 C127.67 25.77, 123.09 29.01, 120.01 31.19 M120.01 31.19 C119.54 28.63, 119.08 26.06, 117.75 18.71 M120.01 31.19 C119.12 26.25, 118.23 21.32, 117.75 18.71 M117.75 18.71 C122.9 20.06, 128.04 21.42, 132.26 22.53 M117.75 18.71 C123.31 20.17, 128.87 21.64, 132.26 22.53 M132.26 22.53 C132.26 22.53, 132.26 22.53, 132.26 22.53 M132.26 22.53 C132.26 22.53, 132.26 22.53, 132.26 22.53" stroke="#e03131" stroke-width="1" fill="none"></path></g></g><mask></mask><g transform="translate(862.282940314906 545.5325480618376) rotate(0 46.509979248046875 12.5)"><text x="0" y="0" font-family="Virgil, Segoe UI Emoji" font-size="20px" fill="#1e1e1e" text-anchor="start" style="white-space: pre;" direction="ltr" dominant-baseline="text-before-edge">x * y = k</text></g><g transform="translate(740.6424474049177 601.8550101029723) rotate(0 165.67822265625 12.5)"><text x="0" y="0" font-family="Virgil, Segoe UI Emoji" font-size="20px" fill="#1971c2" text-anchor="start" style="white-space: pre;" direction="ltr" dominant-baseline="text-before-edge">1,123 * 1,998,940 ≈ 2.244 * 10^9</text></g><g transform="translate(696.2374176780189 652.4451764661408) rotate(0 246.0181579589844 12.5)"><text x="0" y="0" font-family="Virgil, Segoe UI Emoji" font-size="20px" fill="#c2255c" text-anchor="start" style="white-space: pre;" direction="ltr" dominant-baseline="text-before-edge">(1,123 - x) * (1,998,940 + 3,598) ≈ 2.244 * 10^9</text></g><g transform="translate(1030.6939329495278 660.1393182434331) rotate(0 100.12994384765625 25)"><text x="0" y="0" font-family="Virgil, Segoe UI Emoji" font-size="20px" fill="#f08c00" text-anchor="start" style="white-space: pre;" direction="ltr" dominant-baseline="text-before-edge">  _________</text><text x="0" y="25" font-family="Virgil, Segoe UI Emoji" font-size="20px" fill="#f08c00" text-anchor="start" style="white-space: pre;" direction="ltr" dominant-baseline="text-before-edge">(1,998,940 + 3,598)</text></g><g stroke-linecap="round"><g transform="translate(945.3517870421922 677.2487342377481) rotate(0 39.47748692617853 10.942173426345107)"><path d="M0 0 C5.18 3.44, 17.94 17.36, 31.1 20.63 C44.26 23.9, 70.98 19.77, 78.95 19.6 M0 0 C5.18 3.44, 17.94 17.36, 31.1 20.63 C44.26 23.9, 70.98 19.77, 78.95 19.6" stroke="#f08c00" stroke-width="1" fill="none"></path></g><g transform="translate(945.3517870421922 677.2487342377481) rotate(0 39.47748692617853 10.942173426345107)"><path d="M78.95 19.6 L65.91 27.01 L64.9 14.37 L78.95 19.6" stroke="none" stroke-width="0" fill="#f08c00" fill-rule="evenodd"></path><path d="M78.95 19.6 C74.95 21.88, 70.94 24.15, 65.91 27.01 M78.95 19.6 C74.15 22.33, 69.34 25.06, 65.91 27.01 M65.91 27.01 C65.58 22.87, 65.25 18.73, 64.9 14.37 M65.91 27.01 C65.63 23.49, 65.35 19.97, 64.9 14.37 M64.9 14.37 C69.23 15.98, 73.56 17.59, 78.95 19.6 M64.9 14.37 C68.69 15.78, 72.49 17.2, 78.95 19.6 M78.95 19.6 C78.95 19.6, 78.95 19.6, 78.95 19.6 M78.95 19.6 C78.95 19.6, 78.95 19.6, 78.95 19.6" stroke="#f08c00" stroke-width="1" fill="none"></path></g></g><mask></mask><g transform="translate(832.4536381916118 747.3809580729376) rotate(0 102.00994110107422 12.5)"><text x="0" y="0" font-family="Virgil, Segoe UI Emoji" font-size="20px" fill="#c2255c" text-anchor="start" style="white-space: pre;" direction="ltr" dominant-baseline="text-before-edge">y = 2.017716518 ETH</text></g><g transform="translate(10 644.9600513383539) rotate(0 234.9781494140625 12.5)"><text x="0" y="0" font-family="Virgil, Segoe UI Emoji" font-size="20px" fill="#c2255c" text-anchor="start" style="white-space: pre;" direction="ltr" dominant-baseline="text-before-edge">(3,586 + 2) * (6,454,800 - y) ≈ 2.314 * 10^10</text></g><g transform="translate(347.8499873110017 651.8565014335636) rotate(0 66.0799560546875 25)"><text x="0" y="0" font-family="Virgil, Segoe UI Emoji" font-size="20px" fill="#f08c00" text-anchor="start" style="white-space: pre;" direction="ltr" dominant-baseline="text-before-edge">________</text><text x="0" y="25" font-family="Virgil, Segoe UI Emoji" font-size="20px" fill="#f08c00" text-anchor="start" style="white-space: pre;" direction="ltr" dominant-baseline="text-before-edge"> (3,586 + 2)</text></g><g stroke-linecap="round"><g transform="translate(139.87129814618788 674.3788899776464) rotate(0 101.00460306582707 15.705434126020918)"><path d="M0 0 C15.24 5.19, 57.75 28.75, 91.42 31.17 C125.09 33.58, 183.58 17.27, 202.01 14.49 M0 0 C15.24 5.19, 57.75 28.75, 91.42 31.17 C125.09 33.58, 183.58 17.27, 202.01 14.49" stroke="#f08c00" stroke-width="1" fill="none"></path></g><g transform="translate(139.87129814618788 674.3788899776464) rotate(0 101.00460306582707 15.705434126020918)"><path d="M202.01 14.49 L189.97 23.44 L187.42 11.02 L202.01 14.49" stroke="none" stroke-width="0" fill="#f08c00" fill-rule="evenodd"></path><path d="M202.01 14.49 C199.04 16.7, 196.06 18.91, 189.97 23.44 M202.01 14.49 C199.38 16.44, 196.75 18.4, 189.97 23.44 M189.97 23.44 C189.02 18.79, 188.06 14.14, 187.42 11.02 M189.97 23.44 C188.97 18.56, 187.96 13.67, 187.42 11.02 M187.42 11.02 C193.18 12.39, 198.95 13.76, 202.01 14.49 M187.42 11.02 C191.59 12.01, 195.77 13, 202.01 14.49 M202.01 14.49 C202.01 14.49, 202.01 14.49, 202.01 14.49 M202.01 14.49 C202.01 14.49, 202.01 14.49, 202.01 14.49" stroke="#f08c00" stroke-width="1" fill="none"></path></g></g><mask></mask><g transform="translate(196.90734490110572 755.5205836586811) rotate(0 83.54995727539062 12.5)"><text x="0" y="0" font-family="Virgil, Segoe UI Emoji" font-size="20px" fill="#c2255c" text-anchor="start" style="white-space: pre;" direction="ltr" dominant-baseline="text-before-edge">x = 3,598 USDC</text></g></svg>